<?xml version="1.0" standalone="no"?>
<!DOCTYPE svg PUBLIC "-//W3C//DTD SVG 20010904//EN"
 "http://www.w3.org/TR/2001/REC-SVG-20010904/DTD/svg10.dtd">
<svg version="1.0" xmlns="http://www.w3.org/2000/svg"
 width="574.000000pt" height="283.000000pt" viewBox="0 0 574.000000 283.000000"
 preserveAspectRatio="xMidYMid meet">

<g transform="translate(0.000000,283.000000) scale(0.100000,-0.100000)"
fill="#000000" stroke="none">
<path d="M2110 1269 l0 -391 188 4 c170 3 191 5 228 25 80 43 125 121 125 215
0 67 -17 111 -61 161 l-32 37 26 52 c49 99 24 204 -62 259 l-46 29 -183 0
-183 0 0 -391z m347 286 c47 -33 48 -141 2 -177 -17 -15 -41 -18 -125 -18
l-104 0 0 105 0 105 103 0 c76 0 108 -4 124 -15z m-1 -300 c91 -37 111 -184
33 -249 -29 -25 -37 -26 -145 -26 l-114 0 0 145 0 146 98 -2 c53 -1 111 -7
128 -14z"/>
<path d="M3480 1270 l0 -390 55 0 c47 0 55 3 55 19 0 18 2 18 43 -3 53 -26
166 -28 213 -3 98 51 144 130 144 245 0 115 -43 192 -133 237 -65 32 -161 34
-224 5 l-43 -19 0 149 0 150 -55 0 -55 0 0 -390z m303 36 c130 -54 138 -271
13 -330 -112 -53 -226 25 -227 156 -2 135 103 221 214 174z"/>
<path d="M2823 1614 c-15 -24 -15 -29 -2 -53 28 -50 109 -32 109 25 0 55 -76
75 -107 28z"/>
<path d="M3110 1480 l0 -80 -30 0 c-29 0 -30 -2 -30 -45 0 -43 1 -45 30 -45
l30 0 0 -153 c0 -141 2 -157 23 -197 36 -68 119 -104 195 -84 18 5 22 13 22
48 l0 42 -35 -4 c-28 -3 -40 1 -65 26 l-30 30 0 146 0 146 65 0 65 0 0 45 0
45 -65 0 -65 0 0 80 0 80 -55 0 -55 0 0 -80z"/>
<path d="M4270 1401 c-43 -9 -112 -44 -130 -66 -11 -14 -9 -21 20 -50 l33 -34
33 29 c76 66 194 44 194 -37 l0 -33 -75 0 c-189 0 -277 -66 -262 -197 8 -74
70 -126 164 -139 56 -7 107 6 147 37 l26 20 0 -25 c0 -25 3 -26 56 -26 l55 0
-3 208 c-3 198 -4 208 -26 240 -42 58 -146 91 -232 73z m148 -338 c-3 -53 -6
-59 -37 -80 -25 -17 -48 -23 -86 -23 -67 0 -105 27 -105 74 0 64 37 85 148 86
l83 0 -3 -57z"/>
<path d="M2820 1140 l0 -260 50 0 50 0 0 260 0 260 -50 0 -50 0 0 -260z"/>
</g>
</svg>
