<?xml version="1.0" encoding="UTF-8" standalone="no"?>
<!-- Created with Inkscape (http://www.inkscape.org/) -->

<svg
   width="41mm"
   height="16mm"
   viewBox="0 0 40.999999 16"
   version="1.1"
   id="svg1020"
   sodipodi:docname="logoMarca.svg"
   inkscape:export-filename="C:\Users\maxi\Documents\proyectoPagina\imagenes\dibujo3.png"
   inkscape:export-xdpi="96"
   inkscape:export-ydpi="96"
   inkscape:version="1.1 (c68e22c387, 2021-05-23)"
   xmlns:inkscape="http://www.inkscape.org/namespaces/inkscape"
   xmlns:sodipodi="http://sodipodi.sourceforge.net/DTD/sodipodi-0.dtd"
   xmlns:xlink="http://www.w3.org/1999/xlink"
   xmlns="http://www.w3.org/2000/svg"
   xmlns:svg="http://www.w3.org/2000/svg">
  <sodipodi:namedview
     id="namedview1022"
     pagecolor="#ffffff"
     bordercolor="#666666"
     borderopacity="1.0"
     inkscape:pageshadow="2"
     inkscape:pageopacity="0.0"
     inkscape:pagecheckerboard="0"
     inkscape:document-units="mm"
     showgrid="true"
     inkscape:zoom="1.8756036"
     inkscape:cx="142.08759"
     inkscape:cy="94.10304"
     inkscape:window-width="1440"
     inkscape:window-height="837"
     inkscape:window-x="-8"
     inkscape:window-y="-8"
     inkscape:window-maximized="1"
     inkscape:current-layer="layer1"
     lock-margins="false"
     fit-margin-top="12"
     fit-margin-left="12"
     fit-margin-bottom="12"
     fit-margin-right="26"
     width="60mm">
    <inkscape:grid
       type="xygrid"
       id="grid1081"
       originx="-73.779625"
       originy="-104.0661" />
  </sodipodi:namedview>
  <defs
     id="defs1017">
    <linearGradient
       inkscape:collect="always"
       id="linearGradient2022">
      <stop
         style="stop-color:#ffffff;stop-opacity:1;"
         offset="0"
         id="stop2018" />
      <stop
         style="stop-color:#ffffff;stop-opacity:0;"
         offset="1"
         id="stop2020" />
    </linearGradient>
    <linearGradient
       inkscape:collect="always"
       xlink:href="#linearGradient2022"
       id="linearGradient2024"
       x1="107.03074"
       y1="139.24298"
       x2="120.56453"
       y2="139.24298"
       gradientUnits="userSpaceOnUse"
       gradientTransform="translate(-32.026293,-26.99562)" />
  </defs>
  <g
     inkscape:label="Capa 1"
     inkscape:groupmode="layer"
     id="layer1"
     transform="translate(-73.779625,-104.0661)">
    <path
       sodipodi:type="star"
       style="fill:#000000;fill-opacity:1;stroke:#000000;stroke-opacity:1"
       id="path7019-6"
       inkscape:flatsided="true"
       sodipodi:sides="6"
       sodipodi:cx="580"
       sodipodi:cy="480"
       sodipodi:r1="120"
       sodipodi:r2="103.92305"
       sodipodi:arg1="1.5707963"
       sodipodi:arg2="2.0943951"
       inkscape:rounded="0"
       inkscape:randomized="0"
       transform="matrix(0.04146716,0,0,0.04146716,57.629237,92.385876)"
       inkscape:transform-center-x="-3.6331027e-06"
       inkscape:transform-center-y="4.5296143e-06"
       d="m 580,600 -103.92305,-60 0,-120 L 580,360 l 103.92305,60 0,120 z"
       inkscape:export-filename="C:\Users\maxi\Documents\proyectoPagina\imagenes\dibujoLogoMarca.png"
       inkscape:export-xdpi="96"
       inkscape:export-ydpi="96" />
    <path
       id="path7582-4"
       style="fill:#ffffff;fill-opacity:1;stroke:#000000;stroke-width:0.0492932;stroke-opacity:1"
       d="m 81.680187,109.38741 -2.47564,1.4307 -0.0225,2.90302 2.45313,1.47233 2.47563,-1.43078 0.0225,-2.90294 z"
       inkscape:export-filename="C:\Users\maxi\Documents\proyectoPagina\imagenes\dibujoLogoMarca.png"
       inkscape:export-xdpi="96"
       inkscape:export-ydpi="96" />
    <path
       id="path7826-9"
       style="fill:#000000;fill-opacity:1;stroke:#000000;stroke-width:0.0414671;stroke-opacity:1"
       d="m 81.680187,110.21675 -1.79556,1.03668 v 2.07336 l 1.79556,1.03668 1.79556,-1.03668 v -2.07336 z"
       inkscape:export-filename="C:\Users\maxi\Documents\proyectoPagina\imagenes\dibujoLogoMarca.png"
       inkscape:export-xdpi="96"
       inkscape:export-ydpi="96" />
    <ellipse
       style="mix-blend-mode:color-burn;fill:url(#linearGradient2024);fill-opacity:1;stroke:#000000;stroke-width:0.2;stroke-linecap:round;stroke-linejoin:round;stroke-miterlimit:10;stroke-dasharray:none"
       id="path2016"
       cx="81.771347"
       cy="112.24737"
       rx="6.6413937"
       ry="6.9513159"
       inkscape:export-filename="C:\Users\maxi\Documents\proyectoPagina\imagenes\dibujoLogoMarca.png"
       inkscape:export-xdpi="96"
       inkscape:export-ydpi="96" />
    <g
       aria-label="Bitba"
       id="text2917"
       style="font-size:10.5833px;line-height:1.25;font-family:Ubuntu;-inkscape-font-specification:Ubuntu;stroke-width:0.264583">
      <path
         d="m 91.882008,116.11504 q -0.222249,0 -0.486832,-0.0106 -0.253999,-0.0106 -0.518581,-0.0318 -0.254,-0.0212 -0.507999,-0.0529 -0.253999,-0.0318 -0.465665,-0.0847 v -7.11198 q 0.211666,-0.0529 0.465665,-0.0847 0.253999,-0.0318 0.507999,-0.0529 0.264582,-0.0212 0.518581,-0.0318 0.254,-0.0106 0.476249,-0.0106 0.634998,0 1.185329,0.0952 0.560915,0.0953 0.963081,0.32808 0.412748,0.22225 0.645581,0.59266 0.232833,0.37042 0.232833,0.91017 0,0.60325 -0.28575,0.99483 -0.285749,0.381 -0.761997,0.5715 0.645581,0.1905 1.02658,0.60324 0.380999,0.41275 0.380999,1.16417 0,1.10066 -0.814914,1.66157 -0.804331,0.55034 -2.561159,0.55034 z m -0.96308,-3.48191 v 2.58233 q 0.116416,0.0106 0.275166,0.0212 0.137583,0.0106 0.317499,0.0212 0.190499,0 0.433915,0 0.455082,0 0.857247,-0.0529 0.412749,-0.0635 0.719665,-0.21166 0.306915,-0.14817 0.486831,-0.41275 0.1905,-0.26458 0.1905,-0.66675 0,-0.35983 -0.137583,-0.60325 -0.137583,-0.254 -0.402166,-0.40216 -0.253999,-0.14817 -0.613831,-0.21167 -0.359832,-0.0635 -0.804331,-0.0635 z m 0,-0.8255 h 1.079496 q 0.380999,0 0.719665,-0.0529 0.338665,-0.0529 0.582081,-0.1905 0.253999,-0.13759 0.391582,-0.35983 0.148167,-0.22225 0.148167,-0.56092 0,-0.3175 -0.148167,-0.52916 -0.148166,-0.22225 -0.412748,-0.34925 -0.254,-0.13759 -0.603248,-0.20109 -0.349249,-0.0635 -0.740831,-0.0635 -0.391582,0 -0.613832,0.0106 -0.222249,0.0106 -0.402165,0.0318 z"
         id="path2316" />
      <path
         d="m 97.628736,116.05154 h -0.984247 v -5.50332 h 0.984247 z m -0.497415,-6.49815 q -0.264582,0 -0.455082,-0.16933 -0.179916,-0.17992 -0.179916,-0.47625 0,-0.29633 0.179916,-0.46567 0.1905,-0.17991 0.455082,-0.17991 0.264583,0 0.444499,0.17991 0.190499,0.16934 0.190499,0.46567 0,0.29633 -0.190499,0.47625 -0.179916,0.16933 -0.444499,0.16933 z"
         id="path2318" />
      <path
         d="m 100.24279,110.54822 h 2.08491 v 0.8255 h -2.08491 v 2.53999 q 0,0.41275 0.0635,0.68791 0.0635,0.26459 0.1905,0.42334 0.127,0.14816 0.3175,0.21166 0.1905,0.0635 0.4445,0.0635 0.4445,0 0.70908,-0.0953 0.27517,-0.10583 0.381,-0.14816 l 0.1905,0.81491 q -0.14817,0.0741 -0.51858,0.17992 -0.37042,0.11641 -0.84667,0.11641 -0.56091,0 -0.93133,-0.13758 -0.359828,-0.14817 -0.582078,-0.43392 -0.222249,-0.28574 -0.317499,-0.69849 -0.08467,-0.42334 -0.08467,-0.97367 v -4.91065 l 0.984243,-0.16933 z"
         id="path2320" />
      <path
         d="m 104.56076,110.79164 q 0.17992,-0.11642 0.53975,-0.24342 0.37042,-0.127 0.84667,-0.127 0.59266,0 1.04774,0.21167 0.46567,0.21166 0.78317,0.59266 0.3175,0.381 0.47625,0.91017 0.16933,0.52916 0.16933,1.16416 0,0.66675 -0.20108,1.20649 -0.1905,0.52917 -0.55034,0.89959 -0.35983,0.37041 -0.86783,0.57149 -0.50799,0.20109 -1.14299,0.20109 -0.68792,0 -1.21708,-0.0952 -0.52917,-0.0953 -0.86783,-0.1905 v -7.88456 l 0.98424,-0.16933 z m 0,4.40265 q 0.14817,0.0423 0.41275,0.0847 0.27517,0.0318 0.67733,0.0318 0.79375,0 1.27,-0.51859 0.47625,-0.52916 0.47625,-1.49224 0,-0.42333 -0.0847,-0.79375 -0.0847,-0.37041 -0.27516,-0.635 -0.1905,-0.27516 -0.49742,-0.42333 -0.29633,-0.15875 -0.71966,-0.15875 -0.40217,0 -0.74083,0.13758 -0.33867,0.13759 -0.51859,0.28575 z"
         id="path2322" />
      <path
         d="m 111.67273,115.34246 q 0.34925,0 0.61383,-0.0106 0.27517,-0.0212 0.45508,-0.0635 v -1.64041 q -0.10583,-0.0529 -0.34925,-0.0847 -0.23283,-0.0423 -0.5715,-0.0423 -0.22224,0 -0.47624,0.0317 -0.24342,0.0318 -0.45509,0.13758 -0.20108,0.0953 -0.33866,0.27517 -0.13758,0.16933 -0.13758,0.45508 0,0.52917 0.33866,0.74083 0.33867,0.20109 0.92075,0.20109 z m -0.0847,-4.93182 q 0.59267,0 0.99483,0.15875 0.41275,0.14816 0.65617,0.43391 0.254,0.27517 0.35983,0.66675 0.10583,0.381 0.10583,0.84666 v 3.43958 q -0.127,0.0212 -0.35983,0.0635 -0.22225,0.0318 -0.508,0.0635 -0.28575,0.0317 -0.62441,0.0529 -0.32809,0.0318 -0.65617,0.0318 -0.46566,0 -0.85725,-0.0953 -0.39158,-0.0952 -0.67733,-0.29633 -0.28575,-0.21167 -0.44449,-0.55033 -0.15875,-0.33867 -0.15875,-0.81491 0,-0.45509 0.17991,-0.78317 0.1905,-0.32808 0.508,-0.52916 0.3175,-0.20109 0.74083,-0.29634 0.42333,-0.0952 0.889,-0.0952 0.14816,0 0.30691,0.0212 0.15875,0.0106 0.29634,0.0423 0.14816,0.0212 0.254,0.0423 0.10583,0.0212 0.14816,0.0318 v -0.27517 q 0,-0.24341 -0.0529,-0.47625 -0.0529,-0.24341 -0.1905,-0.42333 -0.13759,-0.1905 -0.381,-0.29633 -0.23284,-0.11642 -0.61383,-0.11642 -0.48684,0 -0.85725,0.0741 -0.35983,0.0635 -0.53975,0.13759 l -0.11642,-0.81492 q 0.1905,-0.0847 0.635,-0.15875 0.4445,-0.0847 0.96308,-0.0847 z"
         id="path2324" />
    </g>
  </g>
</svg>
